<svg id="Layer_3" data-name="Layer 3" xmlns="http://www.w3.org/2000/svg" viewBox="0 0 28.69 35.67"><defs><style>.cls-1,.cls-2{fill:none;stroke-miterlimit:10;stroke-width:2px;}.cls-1{stroke:#1e1e99;}.cls-2{stroke:#fff;}</style></defs><title>import_file_blue</title><path class="cls-1" d="M29,5c-1.22-1.22-2.46-2.55-3.6-3.93h-15A4.8,4.8,0,0,0,5.62,5.87V30a4.8,4.8,0,0,0,4.79,4.79h17.1A4.8,4.8,0,0,0,32.3,30V8.23C31.15,7.22,30.1,6.1,29,5Z" transform="translate(-4.62 -0.08)"/><line class="cls-1" x1="9.67" y1="12.52" x2="15.39" y2="18.24"/><line class="cls-1" x1="9.67" y1="22.58" x2="15.4" y2="16.85"/><path class="cls-1" d="M24.2,8.25h7.72" transform="translate(-4.62 -0.08)"/><path class="cls-1" d="M25.2,1.44V8.69" transform="translate(-4.62 -0.08)"/><line class="cls-2" x1="1" y1="12.71" x2="1" y2="22.57"/><line class="cls-1" x1="14.49" y1="17.92" x2="1" y2="17.92"/></svg>