<?xml version="1.0" encoding="utf-8"?><!-- Generator: Adobe Illustrator 23.0.3, SVG Export Plug-In . SVG Version: 6.00 Build 0)  -->
<svg xmlns:xlink="http://www.w3.org/1999/xlink" style="enable-background:new 0 0 36 36;"
    version="1.1" viewBox="0 0 36 36" x="0px" xmlns="http://www.w3.org/2000/svg" y="0px"
    xml:space="preserve">
<style type="text/css">
	.st0{display:none;}
	.st1{display:inline;fill:#1E1E99;}
	.st2{fill:none;stroke:#1E1E99;stroke-width:2;stroke-miterlimit:10;}
	.st3{fill:#FFFFFF;stroke:#FFFFFF;stroke-width:2;stroke-miterlimit:10;}
</style>
    <g class="st0" id="Layer_1">
	<path class="st1" d="M22.4,0.9c-2.4,0-4.7,0.7-6.8,1.9c-0.3,0.2-0.4,0.6-0.2,0.9c0.2,0.3,0.6,0.4,0.9,0.2c1.8-1.1,3.9-1.7,6-1.7
		c6.3,0,11.4,5.1,11.4,11.4c0,6.3-5.1,11.4-11.4,11.4C16.1,25,11,19.9,11,13.6c0-2.1,0.6-4.2,1.7-6c0.2-0.3,0.1-0.7-0.2-0.9
		c-0.3-0.2-0.7-0.1-0.9,0.2c-1.3,2-1.9,4.4-1.9,6.8c0,2.8,0.9,5.4,2.4,7.4L11,22.2c-0.7-0.4-1.7-0.2-2.3,0.4l-7.2,7.2
		c-0.8,0.8-0.8,2.1,0,2.8l1.9,1.9c0.4,0.4,0.9,0.6,1.4,0.6c0.5,0,1-0.2,1.4-0.6l7.2-7.2c0.4-0.4,0.6-0.9,0.6-1.4
		c0-0.3-0.1-0.6-0.2-0.9l1.1-1.1c2.1,1.5,4.7,2.4,7.4,2.4c7,0,12.7-5.7,12.7-12.7C35.1,6.6,29.4,0.9,22.4,0.9z M12.5,26.3l-7.2,7.2
		c-0.1,0.1-0.3,0.2-0.5,0.2c-0.2,0-0.3-0.1-0.5-0.2l-1.9-1.9c-0.3-0.3-0.3-0.7,0-0.9l7.2-7.2c0.1-0.1,0.3-0.2,0.5-0.2
		c0.2,0,0.3,0.1,0.5,0.2l1.9,1.9c0.1,0.1,0.2,0.3,0.2,0.5S12.6,26.2,12.5,26.3z M13,24L12,23l1-1c0.3,0.3,0.6,0.6,0.9,0.9L13,24z" />
        <path class="st1" d="M30.3,18.6c0.3,0.2,0.7,0.1,0.9-0.3c0.8-1.5,1.2-3.1,1.2-4.8c0-5.5-4.5-10-10-10c-5.5,0-10,4.5-10,10
		c0,5.5,4.5,10,10,10c1.7,0,3.3-0.4,4.8-1.2c0.3-0.2,0.4-0.6,0.3-0.9c-0.2-0.3-0.6-0.4-0.9-0.3c-1.3,0.7-2.7,1-4.1,1
		c-4.8,0-8.7-3.9-8.7-8.7s3.9-8.7,8.7-8.7c4.8,0,8.7,3.9,8.7,8.7c0,1.4-0.4,2.9-1,4.1C29.9,18,30,18.5,30.3,18.6z" />
        <path class="st1" d="M13.9,5.7c0.2,0,0.3-0.1,0.4-0.2c0.3-0.2,0.3-0.7,0-0.9c-0.2-0.3-0.7-0.3-0.9,0l0,0c-0.3,0.2-0.3,0.7,0,0.9
		C13.5,5.7,13.7,5.7,13.9,5.7z" />
        <path class="st1" d="M29,20.9c0.2,0,0.3-0.1,0.4-0.2c0.3-0.2,0.3-0.7,0.1-0.9c-0.2-0.3-0.7-0.3-0.9-0.1l0,0
		c-0.3,0.2-0.3,0.7-0.1,0.9C28.6,20.8,28.8,20.9,29,20.9z" />
        <path class="st1" d="M29.4,14c0.2-0.2,0.2-0.5,0-0.8c-1.5-2.1-4.1-3.3-7-3.3s-5.5,1.3-7,3.3c-0.2,0.2-0.2,0.5,0,0.8
		c1.5,2.1,4.1,3.3,7,3.3S28,16,29.4,14z M24.8,13.6c0,1.3-1.1,2.4-2.4,2.4S20,14.9,20,13.6s1.1-2.4,2.4-2.4S24.8,12.3,24.8,13.6z
		 M16.8,13.6c0.6-0.7,1.4-1.3,2.3-1.7c-0.3,0.5-0.4,1.1-0.4,1.7s0.1,1.2,0.4,1.7C18.2,14.9,17.4,14.3,16.8,13.6z M25.7,15.3
		c0.3-0.5,0.4-1.1,0.4-1.7c0-0.6-0.1-1.2-0.4-1.7c0.9,0.4,1.7,1,2.3,1.7C27.4,14.3,26.6,14.9,25.7,15.3z" />
        <path class="st1" d="M22.4,14.3L22.4,14.3c0.4,0,0.7-0.3,0.7-0.7c0-0.4-0.3-0.7-0.7-0.7c-0.4,0-0.7,0.3-0.7,0.7
		C21.7,14,22,14.3,22.4,14.3z" />
</g>
    <g class="st0" id="Layer_2">
	
		<image style="display:inline;overflow:visible;enable-background:new    ;" height="150"
            id="fileimport_120157_1_" transform="matrix(0.2403 0 0 0.2403 4.6874 0)" width="120"
            xlink:href="4405A72A426D7AA7.png">
	</image>
</g>
    <g id="Layer_3">
	<path class="st2" d="M29,5c-1.2-1.2-2.5-2.6-3.6-3.9h-15c-2.6,0-4.8,2.2-4.8,4.8V30c0,2.6,2.2,4.8,4.8,4.8h17.1
		c2.6,0,4.8-2.2,4.8-4.8V8.2C31.2,7.2,30.1,6.1,29,5z" />
        <line class="st2" x1="14.3" x2="20" y1="12.6" y2="18.3" />
        <line class="st2" x1="14.3" x2="20" y1="22.7" y2="16.9" />
        <path class="st2" d="M24.2,8.3c2.6,0,5.1,0,7.7,0" />
        <path class="st2" d="M25.2,1.4c0,2.4,0,4.8,0,7.2" />
        <line class="st3" x1="5.6" x2="5.6" y1="12.8" y2="22.6" />
        <line class="st2" x1="19.1" x2="5.6" y1="18" y2="18" />
</g>
</svg>
